{
    "asset" : {
        "generator" : "Khronos glTF Blender I/O v1.1.46",
        "version" : "2.0"
    },
    "scene" : 0,
    "scenes" : [
        {
            "name" : "Scene",
            "nodes" : [
                0,
                1,
                2,
                3,
                4,
                5
            ]
        }
    ],
    "nodes" : [
        {
            "mesh" : 0,
            "name" : "BInEngL1",
            "rotation" : [
                0.7071068286895752,
                0,
                0,
                0.7071067094802856
            ]
        },
        {
            "mesh" : 1,
            "name" : "BInEngL2",
            "rotation" : [
                0.7071068286895752,
                0,
                0,
                0.7071067094802856
            ]
        },
        {
            "mesh" : 2,
            "name" : "BInShip",
            "rotation" : [
                0.7071068286895752,
                0,
                0,
                0.7071067094802856
            ]
        },
        {
            "mesh" : 3,
            "name" : "BInWpL1",
            "rotation" : [
                0.7071068286895752,
                0,
                0,
                0.7071067094802856
            ]
        },
        {
            "mesh" : 4,
            "name" : "BInWpL2",
            "rotation" : [
                0.7071068286895752,
                0,
                0,
                0.7071067094802856
            ]
        },
        {
            "mesh" : 5,
            "name" : "BInEmb_Plane.007",
            "rotation" : [
                0.7071068286895752,
                0,
                0,
                0.7071067094802856
            ]
        }
    ],
    "materials" : [
        {
            "doubleSided" : true,
            "emissiveFactor" : [
                0,
                0,
                0
            ],
            "name" : "BInEngL1",
            "pbrMetallicRoughness" : {
                "metallicFactor" : 0,
                "roughnessFactor" : 0.8945907354354858
            }
        },
        {
            "doubleSided" : true,
            "emissiveFactor" : [
                0,
                0,
                0
            ],
            "name" : "BInEngL2",
            "pbrMetallicRoughness" : {
                "metallicFactor" : 0,
                "roughnessFactor" : 0.8945907354354858
            }
        },
        {
            "doubleSided" : true,
            "emissiveFactor" : [
                0,
                0,
                0
            ],
            "name" : "BInEmb",
            "pbrMetallicRoughness" : {
                "metallicFactor" : 0,
                "roughnessFactor" : 0.5
            }
        },
        {
            "doubleSided" : true,
            "emissiveFactor" : [
                0,
                0,
                0
            ],
            "name" : "BInWpL1",
            "pbrMetallicRoughness" : {
                "metallicFactor" : 0,
                "roughnessFactor" : 0.8945907354354858
            }
        },
        {
            "doubleSided" : true,
            "emissiveFactor" : [
                0,
                0,
                0
            ],
            "name" : "BInWpL2",
            "pbrMetallicRoughness" : {
                "metallicFactor" : 0,
                "roughnessFactor" : 0.8945907354354858
            }
        }
    ],
    "meshes" : [
        {
            "name" : "BInEngL1",
            "primitives" : [
                {
                    "attributes" : {
                        "POSITION" : 0,
                        "NORMAL" : 1,
                        "TEXCOORD_0" : 2
                    },
                    "indices" : 3,
                    "material" : 0
                }
            ]
        },
        {
            "name" : "BInEngL2",
            "primitives" : [
                {
                    "attributes" : {
                        "POSITION" : 4,
                        "NORMAL" : 5,
                        "TEXCOORD_0" : 6
                    },
                    "indices" : 7,
                    "material" : 1
                }
            ]
        },
        {
            "name" : "BInShip",
            "primitives" : [
                {
                    "attributes" : {
                        "POSITION" : 8,
                        "NORMAL" : 9,
                        "TEXCOORD_0" : 10
                    },
                    "indices" : 11,
                    "material" : 2
                }
            ]
        },
        {
            "name" : "BInWpL1",
            "primitives" : [
                {
                    "attributes" : {
                        "POSITION" : 12,
                        "NORMAL" : 13,
                        "TEXCOORD_0" : 14
                    },
                    "indices" : 15,
                    "material" : 3
                }
            ]
        },
        {
            "name" : "BInWpL2",
            "primitives" : [
                {
                    "attributes" : {
                        "POSITION" : 16,
                        "NORMAL" : 17,
                        "TEXCOORD_0" : 18
                    },
                    "indices" : 19,
                    "material" : 4
                }
            ]
        },
        {
            "name" : "BInEmb_Plane.007",
            "primitives" : [
                {
                    "attributes" : {
                        "POSITION" : 20,
                        "NORMAL" : 21,
                        "TEXCOORD_0" : 22
                    },
                    "indices" : 23,
                    "material" : 2
                }
            ]
        }
    ],
    "accessors" : [
        {
            "bufferView" : 0,
            "componentType" : 5126,
            "count" : 180,
            "max" : [
                3.056183099746704,
                -2.3710999488830566,
                -1.0391349792480469
            ],
            "min" : [
                -3.05389404296875,
                -3.443000078201294,
                -1.9830349683761597
            ],
            "type" : "VEC3"
        },
        {
            "bufferView" : 1,
            "componentType" : 5126,
            "count" : 180,
            "type" : "VEC3"
        },
        {
            "bufferView" : 2,
            "componentType" : 5126,
            "count" : 180,
            "type" : "VEC2"
        },
        {
            "bufferView" : 3,
            "componentType" : 5123,
            "count" : 336,
            "type" : "SCALAR"
        },
        {
            "bufferView" : 4,
            "componentType" : 5126,
            "count" : 180,
            "max" : [
                3.792206048965454,
                -2.873800039291382,
                -1.4027349948883057
            ],
            "min" : [
                -3.7899169921875,
                -3.94569993019104,
                -2.346635103225708
            ],
            "type" : "VEC3"
        },
        {
            "bufferView" : 5,
            "componentType" : 5126,
            "count" : 180,
            "type" : "VEC3"
        },
        {
            "bufferView" : 6,
            "componentType" : 5126,
            "count" : 180,
            "type" : "VEC2"
        },
        {
            "bufferView" : 7,
            "componentType" : 5123,
            "count" : 336,
            "type" : "SCALAR"
        },
        {
            "bufferView" : 8,
            "componentType" : 5126,
            "count" : 2346,
            "max" : [
                6.091492176055908,
                9.88479995727539,
                3.4919660091400146
            ],
            "min" : [
                -6.089202880859375,
                -5.820000171661377,
                -3.7200350761413574
            ],
            "type" : "VEC3"
        },
        {
            "bufferView" : 9,
            "componentType" : 5126,
            "count" : 2346,
            "type" : "VEC3"
        },
        {
            "bufferView" : 10,
            "componentType" : 5126,
            "count" : 2346,
            "type" : "VEC2"
        },
        {
            "bufferView" : 11,
            "componentType" : 5123,
            "count" : 6054,
            "type" : "SCALAR"
        },
        {
            "bufferView" : 12,
            "componentType" : 5126,
            "count" : 360,
            "max" : [
                2.466491937637329,
                6.988598823547363,
                0.2584660053253174
            ],
            "min" : [
                -2.409514904022217,
                3.1759989261627197,
                -0.6183339953422546
            ],
            "type" : "VEC3"
        },
        {
            "bufferView" : 13,
            "componentType" : 5126,
            "count" : 360,
            "type" : "VEC3"
        },
        {
            "bufferView" : 14,
            "componentType" : 5126,
            "count" : 360,
            "type" : "VEC2"
        },
        {
            "bufferView" : 15,
            "componentType" : 5123,
            "count" : 516,
            "type" : "SCALAR"
        },
        {
            "bufferView" : 16,
            "componentType" : 5126,
            "count" : 360,
            "max" : [
                1.7342829704284668,
                -0.10830000042915344,
                -1.2401349544525146
            ],
            "min" : [
                -1.7315059900283813,
                -3.9209001064300537,
                -2.192534923553467
            ],
            "type" : "VEC3"
        },
        {
            "bufferView" : 17,
            "componentType" : 5126,
            "count" : 360,
            "type" : "VEC3"
        },
        {
            "bufferView" : 18,
            "componentType" : 5126,
            "count" : 360,
            "type" : "VEC2"
        },
        {
            "bufferView" : 19,
            "componentType" : 5123,
            "count" : 516,
            "type" : "SCALAR"
        },
        {
            "bufferView" : 20,
            "componentType" : 5126,
            "count" : 30,
            "max" : [
                0.7322180271148682,
                -1.1342849731445312,
                -1.530972957611084
            ],
            "min" : [
                -0.7322180271148682,
                -2.598721981048584,
                -1.530972957611084
            ],
            "type" : "VEC3"
        },
        {
            "bufferView" : 21,
            "componentType" : 5126,
            "count" : 30,
            "type" : "VEC3"
        },
        {
            "bufferView" : 22,
            "componentType" : 5126,
            "count" : 30,
            "type" : "VEC2"
        },
        {
            "bufferView" : 23,
            "componentType" : 5123,
            "count" : 42,
            "type" : "SCALAR"
        }
    ],
    "bufferViews" : [
        {
            "buffer" : 0,
            "byteLength" : 2160,
            "byteOffset" : 0
        },
        {
            "buffer" : 0,
            "byteLength" : 2160,
            "byteOffset" : 2160
        },
        {
            "buffer" : 0,
            "byteLength" : 1440,
            "byteOffset" : 4320
        },
        {
            "buffer" : 0,
            "byteLength" : 672,
            "byteOffset" : 5760
        },
        {
            "buffer" : 0,
            "byteLength" : 2160,
            "byteOffset" : 6432
        },
        {
            "buffer" : 0,
            "byteLength" : 2160,
            "byteOffset" : 8592
        },
        {
            "buffer" : 0,
            "byteLength" : 1440,
            "byteOffset" : 10752
        },
        {
            "buffer" : 0,
            "byteLength" : 672,
            "byteOffset" : 12192
        },
        {
            "buffer" : 0,
            "byteLength" : 28152,
            "byteOffset" : 12864
        },
        {
            "buffer" : 0,
            "byteLength" : 28152,
            "byteOffset" : 41016
        },
        {
            "buffer" : 0,
            "byteLength" : 18768,
            "byteOffset" : 69168
        },
        {
            "buffer" : 0,
            "byteLength" : 12108,
            "byteOffset" : 87936
        },
        {
            "buffer" : 0,
            "byteLength" : 4320,
            "byteOffset" : 100044
        },
        {
            "buffer" : 0,
            "byteLength" : 4320,
            "byteOffset" : 104364
        },
        {
            "buffer" : 0,
            "byteLength" : 2880,
            "byteOffset" : 108684
        },
        {
            "buffer" : 0,
            "byteLength" : 1032,
            "byteOffset" : 111564
        },
        {
            "buffer" : 0,
            "byteLength" : 4320,
            "byteOffset" : 112596
        },
        {
            "buffer" : 0,
            "byteLength" : 4320,
            "byteOffset" : 116916
        },
        {
            "buffer" : 0,
            "byteLength" : 2880,
            "byteOffset" : 121236
        },
        {
            "buffer" : 0,
            "byteLength" : 1032,
            "byteOffset" : 124116
        },
        {
            "buffer" : 0,
            "byteLength" : 360,
            "byteOffset" : 125148
        },
        {
            "buffer" : 0,
            "byteLength" : 360,
            "byteOffset" : 125508
        },
        {
            "buffer" : 0,
            "byteLength" : 240,
            "byteOffset" : 125868
        },
        {
            "buffer" : 0,
            "byteLength" : 84,
            "byteOffset" : 126108
        }
    ],
    "buffers" : [
        {
            "byteLength" : 126192,
            "uri" : "data:application/octet-stream;base64,"
        }
    ]
}
